<svg xmlns="http://www.w3.org/2000/svg" viewBox="0 0 100 100">
  <defs>
    <linearGradient id="brainGrad" x1="0%" y1="0%" x2="100%" y2="100%">
      <stop offset="0%" style="stop-color:#0066cc;stop-opacity:1" />
      <stop offset="100%" style="stop-color:#00ccff;stop-opacity:1" />
    </linearGradient>
  </defs>
  <circle cx="50" cy="50" r="45" fill="url(#brainGrad)" opacity="0.2"/>
  <path d="M50 15 C25 15 15 35 15 50 C15 70 30 85 50 85 C70 85 85 70 85 50 C85 35 75 15 50 15 M50 25 C35 25 25 40 25 50 C25 65 35 75 50 75 C65 75 75 65 75 50 C75 40 65 25 50 25" fill="url(#brainGrad)"/>
  <path d="M50 30 Q40 40 50 50 Q60 60 50 70" stroke="#fff" stroke-width="3" fill="none"/>
  <path d="M35 45 Q45 50 35 55" stroke="#fff" stroke-width="2" fill="none"/>
  <path d="M65 45 Q55 50 65 55" stroke="#fff" stroke-width="2" fill="none"/>
  <circle cx="40" cy="40" r="5" fill="#ef4444"/>
  <circle cx="60" cy="55" r="4" fill="#22c55e"/>
  <circle cx="45" cy="60" r="3" fill="#eab308"/>
</svg>
